<svg xmlns="http://www.w3.org/2000/svg" xmlns:xlink="http://www.w3.org/1999/xlink" version="1.0" x="0" y="0" width="2400" height="2887.0102415071906" viewBox="120.70850303649902 65.70622184753418 98.58300155639648 118.58755630493164" preserveAspectRatio="xMidYMid meet" color-interpolation-filters="sRGB"><g><defs><linearGradient id="92" x1="0%" y1="0%" x2="100%" y2="0%"><stop offset="0%" stop-color="#fa71cd"></stop> <stop offset="100%" stop-color="#9b59b6"></stop></linearGradient><linearGradient id="93" x1="0%" y1="0%" x2="100%" y2="0%"><stop offset="0%" stop-color="#f9d423"></stop> <stop offset="100%" stop-color="#f83600"></stop></linearGradient><linearGradient id="94" x1="0%" y1="0%" x2="100%" y2="0%"><stop offset="0%" stop-color="#0064d2"></stop> <stop offset="100%" stop-color="#1cb0f6"></stop></linearGradient><linearGradient id="95" x1="0%" y1="0%" x2="100%" y2="0%"><stop offset="0%" stop-color="#f00978"></stop> <stop offset="100%" stop-color="#3f51b1"></stop></linearGradient><linearGradient id="96" x1="0%" y1="0%" x2="100%" y2="0%"><stop offset="0%" stop-color="#7873f5"></stop> <stop offset="100%" stop-color="#ec77ab"></stop></linearGradient><linearGradient id="97" x1="0%" y1="0%" x2="100%" y2="0%"><stop offset="0%" stop-color="#f9d423"></stop> <stop offset="100%" stop-color="#e14fad"></stop></linearGradient><linearGradient id="98" x1="0%" y1="0%" x2="100%" y2="0%"><stop offset="0%" stop-color="#009efd"></stop> <stop offset="100%" stop-color="#2af598"></stop></linearGradient><linearGradient id="99" x1="0%" y1="0%" x2="100%" y2="0%"><stop offset="0%" stop-color="#ffcc00"></stop> <stop offset="100%" stop-color="#00b140"></stop></linearGradient><linearGradient id="100" x1="0%" y1="0%" x2="100%" y2="0%"><stop offset="0%" stop-color="#d51007"></stop> <stop offset="100%" stop-color="#ff8177"></stop></linearGradient><linearGradient id="102" x1="0%" y1="0%" x2="100%" y2="0%"><stop offset="0%" stop-color="#a2b6df"></stop> <stop offset="100%" stop-color="#0c3483"></stop></linearGradient><linearGradient id="103" x1="0%" y1="0%" x2="100%" y2="0%"><stop offset="0%" stop-color="#7ac5d8"></stop> <stop offset="100%" stop-color="#eea2a2"></stop></linearGradient><linearGradient id="104" x1="0%" y1="0%" x2="100%" y2="0%"><stop offset="0%" stop-color="#00ecbc"></stop> <stop offset="100%" stop-color="#007adf"></stop></linearGradient><linearGradient id="105" x1="0%" y1="0%" x2="100%" y2="0%"><stop offset="0%" stop-color="#b88746"></stop> <stop offset="100%" stop-color="#fdf5a6"></stop></linearGradient></defs><g fill="#ffffff" class="icon-text-wrapper icon-svg-group iconsvg" transform="translate(121.67499923706055,66.67272186279297)"><g class="iconsvg-imagesvg" transform="translate(18.325000762939453,0)"><g><rect fill="#ffffff" fill-opacity="0" stroke-width="2" x="0" y="0" width="60" height="66.16455123893122" class="image-rect"></rect> <svg x="0" y="0" width="60" height="66.16455123893122" filtersec="colorsb9897961507" class="image-svg-svg primary" style="overflow: visible;"><svg xmlns="http://www.w3.org/2000/svg" viewBox="0 -0.0037206772249192 12.910966873168945 14.237441062927246"><g><g fill-rule="evenodd"><path d="M5.33.31l-4.2 2.42L4 4.37l2.5-1.44L10.09 5v4.21l-3.63 2.1L4 9.87 1.13 11.5l4.19 2.42a2.21 2.21 0 0 0 2.27 0l4.19-2.42a2.22 2.22 0 0 0 1.13-2V4.7a2.22 2.22 0 0 0-1.13-2L7.59.31a2.21 2.21 0 0 0-2.27 0zM0 4.7l2.83 1.63V7.9L0 9.54z" fill="#ffffff"></path><path fill="#0b56a6" d="M5.31 7.12L0 10.19V4.05l5.31 3.07z"></path></g></g></svg></svg> </g></g> <g transform="translate(0,73.16455078125)"><g fill-rule="" class="tp-name iconsvg-namesvg"><g transform="scale(1)"><g><path d="M37.25-4.16Q35.75-3.06 34.26-2.27L34.26-2.27Q29.51 0.26 24.18 0.26L24.18 0.26Q20.87 0.26 17.81-0.72L17.81-0.72Q13.78-1.89 10.46-4.62 7.15-7.35 5.07-11.25L5.07-11.25Q2.6-15.73 2.6-21.19L2.6-21.19Q2.6-22.88 2.73-23.79L2.73-23.79Q3.12-27.37 4.58-30.58 6.04-33.8 8.38-36.27L8.38-36.27Q10.72-38.74 13.75-40.43 16.77-42.12 20.21-42.77L20.21-42.77Q22.16-43.16 24.25-43.16L24.25-43.16Q29.64-43.16 34.52-40.43L34.52-40.43Q38.16-38.29 41.08-34.91L41.08-34.91 36.59-31.14Q33.41-34.65 29.9-36.14L29.9-36.14Q26.98-37.25 23.98-37.25L23.98-37.25Q20.15-37.25 16.71-35.43L16.71-35.43Q12.42-33.15 10.08-28.41L10.08-28.41Q8.38-25.16 8.38-21.45L8.38-21.45Q8.38-19.37 8.97-17.29L8.97-17.29Q10.21-12.22 14.56-8.91L14.56-8.91Q16.57-7.35 19.05-6.5 21.52-5.66 24.12-5.66L24.12-5.66Q27.56-5.66 30.58-7.05 33.61-8.45 35.95-10.99L35.95-10.99 35.95-15.34 29.96-15.34 29.96-21.19 41.73-21.19 41.73-8.84Q39.72-5.98 37.25-4.16L37.25-4.16ZM66.82 0L48.23 0 48.23-43.23 53.82-43.23 53.82-5.85 66.82-5.85 66.82 0ZM99.25-43.23L86.13-15.93 86.13 0 80.34 0 80.34-15.79 67.15-43.23 73.58-43.23 83.2-23.21 92.82-43.23 99.25-43.23Z" transform="translate(-2.5999999046325684, 43.22999954223633)"></path></g> </g></g> </g></g><defs v-gra="od"></defs></g></svg>